<svg id="visual" viewBox="0 0 960 540" width="960" height="540" xmlns="http://www.w3.org/2000/svg" xmlns:xlink="http://www.w3.org/1999/xlink" version="1.1"><rect x="0" y="0" width="960" height="540" fill="#001220"></rect><path d="M0 402L22.8 394.8C45.7 387.7 91.3 373.3 137 366.2C182.7 359 228.3 359 274 368.7C319.7 378.3 365.3 397.7 411.2 398.8C457 400 503 383 548.8 376.5C594.7 370 640.3 374 686 378.2C731.7 382.3 777.3 386.7 823 389.3C868.7 392 914.3 393 937.2 393.5L960 394L960 541L937.2 541C914.3 541 868.7 541 823 541C777.3 541 731.7 541 686 541C640.3 541 594.7 541 548.8 541C503 541 457 541 411.2 541C365.3 541 319.7 541 274 541C228.3 541 182.7 541 137 541C91.3 541 45.7 541 22.8 541L0 541Z" fill="#3b4687"></path><path d="M0 419L22.8 422C45.7 425 91.3 431 137 430.3C182.7 429.7 228.3 422.3 274 420C319.7 417.7 365.3 420.3 411.2 421.2C457 422 503 421 548.8 421.2C594.7 421.3 640.3 422.7 686 422.3C731.7 422 777.3 420 823 415.5C868.7 411 914.3 404 937.2 400.5L960 397L960 541L937.2 541C914.3 541 868.7 541 823 541C777.3 541 731.7 541 686 541C640.3 541 594.7 541 548.8 541C503 541 457 541 411.2 541C365.3 541 319.7 541 274 541C228.3 541 182.7 541 137 541C91.3 541 45.7 541 22.8 541L0 541Z" fill="#2962a1"></path><path d="M0 455L22.8 454.5C45.7 454 91.3 453 137 446.5C182.7 440 228.3 428 274 428C319.7 428 365.3 440 411.2 439.3C457 438.7 503 425.3 548.8 420.7C594.7 416 640.3 420 686 419.3C731.7 418.7 777.3 413.3 823 412.7C868.7 412 914.3 416 937.2 418L960 420L960 541L937.2 541C914.3 541 868.7 541 823 541C777.3 541 731.7 541 686 541C640.3 541 594.7 541 548.8 541C503 541 457 541 411.2 541C365.3 541 319.7 541 274 541C228.3 541 182.7 541 137 541C91.3 541 45.7 541 22.8 541L0 541Z" fill="#0b7eb6"></path><path d="M0 438L22.8 443.7C45.7 449.3 91.3 460.7 137 464.7C182.7 468.7 228.3 465.3 274 462.7C319.7 460 365.3 458 411.2 456.8C457 455.7 503 455.3 548.8 452C594.7 448.7 640.3 442.3 686 445.3C731.7 448.3 777.3 460.7 823 463.5C868.7 466.3 914.3 459.7 937.2 456.3L960 453L960 541L937.2 541C914.3 541 868.7 541 823 541C777.3 541 731.7 541 686 541C640.3 541 594.7 541 548.8 541C503 541 457 541 411.2 541C365.3 541 319.7 541 274 541C228.3 541 182.7 541 137 541C91.3 541 45.7 541 22.8 541L0 541Z" fill="#009ac6"></path><path d="M0 487L22.8 482.2C45.7 477.3 91.3 467.7 137 466.5C182.7 465.3 228.3 472.7 274 473C319.7 473.3 365.3 466.7 411.2 465.8C457 465 503 470 548.8 470.2C594.7 470.3 640.3 465.7 686 464.7C731.7 463.7 777.3 466.3 823 465.5C868.7 464.7 914.3 460.3 937.2 458.2L960 456L960 541L937.2 541C914.3 541 868.7 541 823 541C777.3 541 731.7 541 686 541C640.3 541 594.7 541 548.8 541C503 541 457 541 411.2 541C365.3 541 319.7 541 274 541C228.3 541 182.7 541 137 541C91.3 541 45.7 541 22.8 541L0 541Z" fill="#00b5cb"></path><path d="M0 499L22.8 499.5C45.7 500 91.3 501 137 501.8C182.7 502.7 228.3 503.3 274 500.2C319.7 497 365.3 490 411.2 488.2C457 486.3 503 489.7 548.8 492.7C594.7 495.7 640.3 498.3 686 500C731.7 501.7 777.3 502.3 823 503C868.7 503.7 914.3 504.3 937.2 504.7L960 505L960 541L937.2 541C914.3 541 868.7 541 823 541C777.3 541 731.7 541 686 541C640.3 541 594.7 541 548.8 541C503 541 457 541 411.2 541C365.3 541 319.7 541 274 541C228.3 541 182.7 541 137 541C91.3 541 45.7 541 22.8 541L0 541Z" fill="#00ccaf"></path><path d="M0 501L22.8 504.8C45.7 508.7 91.3 516.3 137 520.3C182.7 524.3 228.3 524.7 274 520.8C319.7 517 365.3 509 411.2 507.5C457 506 503 511 548.8 513.5C594.7 516 640.3 516 686 516.3C731.7 516.7 777.3 517.3 823 516.3C868.7 515.3 914.3 512.7 937.2 511.3L960 510L960 541L937.2 541C914.3 541 868.7 541 823 541C777.3 541 731.7 541 686 541C640.3 541 594.7 541 548.8 541C503 541 457 541 411.2 541C365.3 541 319.7 541 274 541C228.3 541 182.7 541 137 541C91.3 541 45.7 541 22.8 541L0 541Z" fill="#1ede76"></path></svg>